<svg id="Capa_1" enable-background="new 0 0 511.987 511.987" height="512" viewBox="0 0 511.987 511.987" width="512" xmlns="http://www.w3.org/2000/svg"><g><g><path d="m40.446 232.944c-10.669-2.859-17.001-13.826-14.142-24.495l20.706-77.274c14.294-53.347 69.128-85.005 122.474-70.711l-31.058 115.911c-11.436 42.678-55.303 68.005-97.98 56.569z" fill="#2d3644"/></g><g><path d="m471.541 232.944c10.669-2.859 17.001-13.826 14.142-24.495l-20.706-77.274c-14.293-53.346-69.127-85.005-122.473-70.711l31.058 115.911c11.435 42.678 55.302 68.005 97.979 56.569z" fill="#3a4351"/></g><g><circle cx="339.306" cy="70.037" fill="#c8a2c8" r="62.534"/></g><g><path d="m318.902 53.852c5.619-20.971 21.259-36.575 40.385-43.058-1.247-.419-2.508-.815-3.797-1.161-33.36-8.939-67.65 10.859-76.589 44.219s10.858 67.65 44.218 76.589c12.389 3.32 24.904 2.669 36.203-1.161-31.04-10.439-49.013-43.356-40.42-75.428z" fill="#b68db7"/></g><g><circle cx="172.682" cy="70.037" fill="#c8a2c8" r="62.534"/></g><g><path d="m152.278 86.222c-8.594-32.071 9.379-64.989 40.422-75.428-11.299-3.83-23.814-4.48-36.203-1.161-33.36 8.939-53.157 43.229-44.218 76.589s43.229 53.157 76.589 44.218c1.289-.345 2.549-.741 3.797-1.161-19.128-6.481-34.768-22.086-40.387-43.057z" fill="#b68db7"/></g><g><path d="m255.995 43.488c-88.366 0-160 71.634-160 160v15.245l160 66.017 160-66.017v-15.245c0-88.366-71.634-160-160-160z" fill="#4e5660"/></g><g><path d="m255.995 43.488c-88.365 0-160 71.635-160 160v15.245l160 66.017 59.998-24.756v-34.715c-118.303 0-132.404-181.791-59.998-181.791z" fill="#3a4351"/></g><g><path d="m341.428 418.708c-21.895-21.811-52.089-35.296-85.436-35.296-58.724 0-107.684 41.808-118.738 97.282-2.456 12.324 7.076 23.793 19.643 23.793h184.531z" fill="#f6ee86"/></g><g><path d="m280.993 386.003c-8.067-1.694-16.428-2.59-24.999-2.59-58.724 0-107.684 41.808-118.738 97.282-2.456 12.324 7.076 23.793 19.643 23.793h28.021c-.001-58.297 41.201-106.965 96.073-118.485z" fill="#eed076"/></g><g><circle cx="255.995" cy="395.688" fill="#f4ab8c" r="40.53"/></g><g><circle cx="401.123" cy="251.118" fill="#ffbe9d" r="36.081"/></g><g><circle cx="110.865" cy="251.118" fill="#f4ab8c" r="36.081"/></g><g><path d="m354.623 144.837c0 .001-6.109 25.05-17.985 49.315-3.343 6.83-10.325 11.127-17.93 11.127h-125.422c-7.605 0-14.587-4.297-17.93-11.127-11.876-24.265-17.985-49.314-17.985-49.315-28.668 26.616-46.557 64.681-46.373 106.927.346 79.094 64.867 143.794 143.96 144.348 80.558.564 146.039-64.569 146.039-144.996 0-41.988-17.853-79.799-46.374-106.279z" fill="#ffd3bd"/></g><g><path d="m160.998 251.764c-.094-21.612 4.551-42.125 12.94-60.576-10.942-23.298-16.567-46.351-16.568-46.351-28.668 26.616-46.558 64.681-46.373 106.927.346 79.094 64.867 143.794 143.96 144.348 8.915.062 17.645-.683 26.123-2.162-67.801-11.859-119.771-71.224-120.082-142.186z" fill="#ffbe9d"/></g><g><g><g><ellipse cx="176.44" cy="280.109" fill="#ffa1ac" rx="29.355" ry="23.377"/></g><g><ellipse cx="335.554" cy="280.109" fill="#ffa1ac" rx="29.355" ry="23.377"/></g></g><g><path d="m193.548 265.107c-4.142 0-7.5-3.357-7.5-7.5v-12c0-4.143 3.358-7.5 7.5-7.5s7.5 3.357 7.5 7.5v12c0 4.142-3.357 7.5-7.5 7.5z"/></g><g><path d="m318.445 265.107c-4.142 0-7.5-3.357-7.5-7.5v-12c0-4.143 3.358-7.5 7.5-7.5s7.5 3.357 7.5 7.5v12c0 4.142-3.358 7.5-7.5 7.5z"/></g><g><path d="m255.997 272.249c-8.479 0-16.54-3.671-22.118-10.073-2.721-3.122-2.396-7.86.727-10.581 3.123-2.722 7.86-2.396 10.582.728 2.729 3.131 6.668 4.927 10.81 4.927 4.141 0 8.082-1.796 10.81-4.927 2.721-3.124 7.458-3.449 10.582-.728 3.123 2.721 3.448 7.459.727 10.581-5.58 6.402-13.642 10.073-22.12 10.073z"/></g></g><g><g><path d="m405.814 437.365c0 44.183-28.827 67.123-64.386 67.123s-64.386-22.94-64.386-67.123 28.827-92.877 64.386-92.877 64.386 48.694 64.386 92.877z" fill="#fbf1cf"/></g></g><g><path d="m310.375 437.365c0-37.02 20.24-77.202 47.72-89.258-5.316-2.333-10.902-3.619-16.667-3.619-35.56 0-64.386 48.694-64.386 92.877s28.827 67.123 64.386 67.123c5.764 0 11.35-.607 16.667-1.805-27.48-6.195-47.72-28.298-47.72-65.318z" fill="#f7dfb7"/></g><g><path d="m328.065 414.65c-5.082 4.563-12.744 4.562-17.825 0l-24.131-21.668c-5.757 13.934-9.068 29.416-9.068 44.383 0 .425.021.835.026 1.257l6.448 5.79c20.316 18.244 50.957 18.243 71.273.001 5.081-4.562 12.743-4.562 17.823 0l27.171 24.395c3.862-8.872 6.031-19.357 6.031-31.443 0-6.066-.547-12.216-1.576-18.314l-4.903-4.402c-20.315-18.24-50.955-18.239-71.269.001z" fill="#eca0aa"/></g><g><path d="m310.375 437.365c0-6.994.725-14.1 2.082-21.109-.777-.453-1.522-.983-2.216-1.606l-24.131-21.668c-5.757 13.934-9.068 29.416-9.068 44.383 0 .425.021.835.026 1.257l6.448 5.79c8.438 7.577 18.657 11.996 29.177 13.279-1.503-6.182-2.318-12.953-2.318-20.326z" fill="#e16e7e"/></g><path d="m492.928 206.508-20.706-77.274c-8.796-32.825-32.588-59.477-64.04-72.036-1.442-7.703-4.191-15.189-8.226-22.177-9.354-16.201-24.456-27.79-42.525-32.631-16.326-4.374-33.674-2.702-48.845 4.709-13.421 6.557-24.347 17.203-31.236 30.287-7.027-.906-14.153-1.398-21.355-1.398-7.242 0-14.377.463-21.379 1.359-6.89-13.066-17.806-23.697-31.212-30.247-15.173-7.414-32.521-9.087-48.849-4.71-18.07 4.841-33.172 16.43-42.525 32.631-4.034 6.988-6.784 14.474-8.226 22.177-31.452 12.559-55.244 39.211-64.04 72.036l-20.706 77.275c-3.924 14.646 4.799 29.755 19.446 33.68 7.424 1.989 15.077 2.985 22.722 2.985 2.285 0 4.568-.095 6.844-.274-.51 2.663-.788 5.408-.788 8.218 0 23.701 19.021 43.03 42.599 43.556 4.696 15.666 11.919 30.567 21.566 44.198 2.393 3.383 7.074 4.182 10.455 1.79 3.381-2.393 4.182-7.073 1.79-10.454-16.358-23.116-25.071-50.253-25.194-78.478-.149-34.136 12.543-67.179 35.175-92.438 3.2 10.294 8.315 24.608 14.946 38.158 4.559 9.312 14.241 15.329 24.667 15.329h125.421c10.426 0 20.108-6.018 24.667-15.331 6.631-13.548 11.746-27.861 14.946-38.155 22.485 25.102 35.177 57.922 35.177 91.823 0 33.097-11.792 64.748-33.296 89.698-6.078-2.52-12.376-3.827-18.774-3.827-19.283 0-37.676 11.807-51.792 33.245-3.34 5.073-6.297 10.499-8.859 16.154-8.452 1.54-17.099 2.304-25.766 2.226-34.475-.241-67.423-13.436-92.774-37.15-3.024-2.828-7.771-2.672-10.601.354-2.83 3.024-2.671 7.771.354 10.601 12.935 12.099 27.658 21.721 43.509 28.618-33.576 17.979-58.07 50.404-65.6 88.193-1.604 8.048.471 16.312 5.692 22.677 5.257 6.407 13.022 10.082 21.306 10.082h184.531c19.973 0 37.992-6.783 50.739-19.1 13.834-13.367 21.147-32.566 21.147-55.523 0-23.268-7.324-47.736-20.094-67.132-5.939-9.019-12.637-16.326-19.837-21.774 13.233-15.935 22.968-34.219 28.786-53.786 23.548-.559 42.535-19.875 42.535-43.554 0-2.809-.277-5.554-.788-8.217 2.275.178 4.558.272 6.842.272 7.645 0 15.304-.996 22.724-2.984 14.648-3.925 23.371-19.035 19.447-33.681zm-95.736 216.296c.735 4.907 1.122 9.795 1.122 14.56 0 6.746-.698 12.818-1.969 18.277l-18.722-16.81c-7.938-7.125-19.907-7.126-27.845.001-17.459 15.677-43.792 15.678-61.252-.001l-3.958-3.554c.222-9.573 1.956-19.571 4.918-29.184l15.744 14.137c7.938 7.126 19.909 7.128 27.846-.001 17.458-15.674 43.791-15.675 61.249-.001zm-141.21-19.188c6.288 0 12.569-.392 18.785-1.155-2.252 7.548-3.795 15.304-4.592 23.046-4.408 2.097-9.244 3.211-14.181 3.211-16.732 0-30.589-12.509-32.733-28.664 10.315 2.276 20.912 3.483 31.643 3.558.361.002.72.004 1.078.004zm-99.085 93.371c-3.774 0-7.313-1.676-9.709-4.597-2.36-2.877-3.3-6.606-2.578-10.23 7.074-35.501 31.099-65.645 63.705-80.772 2.829 23.806 23.126 42.331 47.68 42.331 4.647 0 9.235-.688 13.638-1.99.874 21.027 8.107 38.648 21.055 51.159 1.496 1.446 3.072 2.808 4.708 4.1h-138.499zm184.531 0c-23.154 0-47.641-11.108-54.804-40.856 22.667 14.396 52.573 12.361 73.176-6.139 2.224-1.998 5.578-1.998 7.802 0l23.048 20.695c-10.529 18.901-30.321 26.3-49.222 26.3zm49.933-96.843c-21.947-11.242-49.15-8.278-68.308 8.925-2.224 1.996-5.578 1.996-7.803 0l-19.996-17.955c10.314-22.05 27.12-39.127 46.173-39.127 21.587 0 40.292 21.919 49.934 48.157zm-37.811-383.266c14.199 3.805 26.067 12.911 33.417 25.642s9.303 27.562 5.498 41.762c-1.352 5.048-3.364 9.784-6.001 14.163-23.639-29.286-56.605-49.89-93.378-58.271 12.733-19.639 37.248-29.516 60.464-23.296zm-228.529 25.642c7.35-12.73 19.218-21.837 33.417-25.642 23.204-6.217 47.703 3.645 60.442 23.261-37.368 8.486-70.023 29.504-93.31 58.381-2.659-4.399-4.686-9.161-6.047-14.239-3.805-14.199-1.853-29.03 5.498-41.761zm-82.634 183.18c-6.657-1.784-10.623-8.652-8.839-15.31l20.706-77.274c6.938-25.895 24.726-47.326 48.497-59.044.281 4.711 1.034 9.428 2.283 14.092 2.271 8.476 6.021 16.257 11.129 23.221-17.476 26.443-27.668 58.102-27.668 92.102v10.246c-5.53 3.322-10.267 7.833-13.852 13.181-10.633 2.014-21.723 1.609-32.256-1.214zm39.897 25.418c0-14.156 10.347-25.935 23.874-28.187-1.79 9.458-2.702 19.12-2.659 28.865.041 9.305.943 18.498 2.638 27.504-13.517-2.26-23.853-14.033-23.853-28.182zm323.604 28.176c1.724-9.217 2.609-18.643 2.609-28.178 0-9.512-.908-18.944-2.658-28.183 13.522 2.256 23.864 14.032 23.864 28.185.001 14.136-10.317 25.9-23.815 28.176zm63.712-53.594c-10.528 2.821-21.624 3.23-32.255 1.216-3.585-5.347-8.32-9.859-13.85-13.181v-10.248c0-13.192-1.54-26.33-4.577-39.046-.962-4.028-5.007-6.512-9.037-5.553-4.029.962-6.515 5.008-5.553 9.037 2.765 11.576 4.167 23.541 4.167 35.562v4.686c-2.088-.357-4.225-.564-6.401-.612-7.74-25.871-22.271-49.562-42.368-68.221-2.186-2.03-5.367-2.569-8.101-1.379-2.194.957-3.766 2.884-4.301 5.149-.308 1.239-6.301 25.022-17.422 47.743-2.059 4.207-6.453 6.925-11.194 6.925h-125.422c-4.741 0-9.135-2.718-11.194-6.924-11.129-22.74-17.124-46.544-17.423-47.747-.536-2.265-2.107-4.189-4.3-5.146-2.733-1.189-5.915-.649-8.101 1.379-20.11 18.67-34.632 42.353-42.368 68.221-2.178.048-4.316.254-6.405.611v-4.686c0-84.089 68.412-152.5 152.5-152.5 59.876 0 114.473 35.28 139.094 89.882 1.703 3.775 6.144 5.456 9.92 3.754s5.457-6.144 3.754-9.92c-3.701-8.207-8.038-16-12.902-23.367 5.09-6.953 8.827-14.718 11.092-23.172 1.25-4.664 2.002-9.381 2.283-14.092 23.771 11.718 41.558 33.149 48.497 59.044l20.706 77.274c1.784 6.659-2.182 13.527-8.839 15.311z"/></g></svg>